<?xml version="1.0" standalone="no"?>
<!DOCTYPE svg PUBLIC "-//W3C//DTD SVG 20010904//EN"
 "http://www.w3.org/TR/2001/REC-SVG-20010904/DTD/svg10.dtd">
<svg version="1.0" xmlns="http://www.w3.org/2000/svg"
 width="576.000000pt" height="488.000000pt" viewBox="0 0 576.000000 488.000000"
 preserveAspectRatio="xMidYMid meet">

<g transform="translate(0.000000,488.000000) scale(0.100000,-0.100000)"
fill="#000000" stroke="none">
<path d="M0 2440 l0 -2440 2880 0 2880 0 0 2440 0 2440 -2880 0 -2880 0 0
-2440z m2272 1720 c65 -91 145 -201 177 -245 32 -44 152 -212 267 -373 333
-468 338 -475 349 -479 9 -3 208 203 451 466 32 36 163 175 289 310 127 136
246 264 265 286 19 22 71 77 114 122 l80 83 278 0 c197 0 278 -3 278 -11 0 -6
-71 -86 -157 -178 -87 -92 -241 -257 -343 -367 -101 -109 -228 -244 -281 -299
-53 -55 -127 -134 -165 -176 -38 -42 -178 -192 -311 -333 -134 -142 -243 -260
-243 -264 0 -6 215 -313 324 -462 14 -19 165 -231 335 -470 170 -239 319 -448
331 -465 167 -234 447 -627 464 -652 11 -17 54 -77 94 -132 39 -56 72 -108 72
-116 0 -13 -100 -15 -765 -15 l-764 0 -65 93 c-79 111 -274 383 -349 487 -63
87 -277 386 -439 614 -63 88 -119 161 -125 163 -6 2 -98 -90 -204 -204 -172
-184 -340 -364 -603 -644 -45 -47 -164 -174 -266 -283 -102 -109 -194 -205
-205 -212 -15 -11 -74 -14 -282 -14 -153 0 -264 4 -268 9 -3 6 3 18 13 28 10
10 76 81 147 158 71 77 174 187 229 245 126 132 202 213 341 365 60 66 209
224 330 351 205 215 489 521 509 548 6 8 -51 95 -170 262 -99 137 -186 259
-194 271 -8 12 -87 122 -175 244 -88 122 -196 273 -240 335 -44 62 -241 338
-437 613 -197 274 -358 502 -358 505 0 3 350 5 777 4 l777 -3 118 -165z"/>
<path d="M1400 3911 c0 -9 104 -157 255 -366 36 -49 99 -137 140 -195 41 -58
102 -143 136 -190 35 -47 85 -117 113 -157 28 -39 144 -201 258 -360 306 -424
322 -446 338 -470 8 -12 76 -105 150 -208 144 -200 216 -300 253 -352 12 -17
60 -84 107 -149 47 -65 92 -128 100 -140 33 -48 331 -461 352 -487 l23 -28
268 3 269 3 -76 105 c-42 58 -92 128 -110 155 -19 28 -130 183 -247 345 -116
162 -249 347 -294 410 -44 63 -162 228 -261 365 -99 138 -186 260 -194 271
-14 20 -217 303 -592 824 -169 236 -275 383 -384 538 l-65 92 -270 0 c-160 0
-269 -4 -269 -9z"/>
</g>
</svg>
